<svg width="100" height="99" viewBox="0 0 100 99" fill="none" xmlns="http://www.w3.org/2000/svg">
<ellipse opacity="0.1" cx="50" cy="49.5" rx="50" ry="49.5" fill="url(#paint0_linear_17_217)"/>
<path d="M35.0074 57.4701C36.7213 57.5232 38.3659 58.1294 39.6998 59.1865L40.2515 59.6674L40.2808 59.6967C43.2509 62.6292 43.2119 67.3328 40.6617 70.3559L40.6641 70.3583C39.5573 71.6759 38.0317 72.6424 36.565 73.3588C35.0696 74.0892 33.4564 74.6458 32.0069 75.0605C30.5499 75.4772 29.2053 75.7659 28.2276 75.9516C27.7369 76.0448 27.3322 76.1141 27.0484 76.1591C26.9074 76.1814 26.7953 76.1965 26.7164 76.2079C26.6767 76.2137 26.6437 76.2194 26.6211 76.2226C26.6103 76.2241 26.6009 76.2241 26.5943 76.225C26.5913 76.2254 26.589 76.2272 26.587 76.2275H26.5821C25.81 76.3307 25.0333 76.0678 24.4825 75.517C23.9321 74.9665 23.6692 74.1915 23.772 73.4199L26.2501 73.7494L23.772 73.4174V73.4125C23.7723 73.4104 23.7741 73.4081 23.7745 73.4052C23.7754 73.3985 23.7754 73.3894 23.7769 73.3783C23.78 73.356 23.7859 73.3247 23.7916 73.2856C23.8031 73.2064 23.8203 73.093 23.8428 72.9511C23.8878 72.6674 23.9548 72.2647 24.0479 71.7743C24.2336 70.7965 24.5221 69.4502 24.939 67.9926C25.3536 66.5432 25.9103 64.9297 26.6407 63.4345C27.3571 61.9679 28.3237 60.4422 29.6412 59.3354C31.139 58.0743 33.0502 57.4098 35.0074 57.4701ZM75.0147 22.4994C76.3891 22.508 77.4997 23.6251 77.5 24.9994C77.5 32.0251 75.526 44.2647 62.8663 53.537C63.0795 54.4313 63.3234 55.609 63.4913 56.9111C63.6741 58.3294 63.7773 59.9627 63.628 61.5693C63.4807 63.1543 63.0716 64.8988 62.0801 66.3862L62.0777 66.391C60.3803 68.9277 57.1799 70.3993 54.9439 71.2104C53.7424 71.6462 52.6316 71.9548 51.8238 72.1552C51.4186 72.2557 51.0844 72.3298 50.8472 72.3798C50.7285 72.4048 50.6316 72.4252 50.564 72.4384C50.5308 72.4449 50.5031 72.4494 50.4835 72.4531C50.4739 72.4548 50.4652 72.4568 50.459 72.4579C50.4563 72.4584 50.4537 72.4576 50.4517 72.4579L50.4493 72.4604H50.4468C49.7176 72.5928 48.9675 72.3934 48.3985 71.9184C47.8296 71.4434 47.5001 70.7406 47.5001 69.9994V58.5346L41.4649 52.4994H30.0001C29.2589 52.4994 28.5561 52.17 28.0811 51.601C27.6065 51.0321 27.4068 50.2817 27.5391 49.5527L30.0001 49.9994C27.7286 49.5871 27.5548 49.5556 27.5416 49.5527V49.5405C27.5427 49.5342 27.5446 49.5258 27.5464 49.516C27.5502 49.4962 27.557 49.4691 27.5635 49.4355C27.5767 49.368 27.5947 49.2731 27.6197 49.1547C27.6697 48.9175 27.7436 48.5815 27.8443 48.1757C28.0446 47.3681 28.3559 46.2591 28.7916 45.058C29.6027 42.8218 31.0736 39.6192 33.6109 37.9218L33.6133 37.9194C35.1007 36.9279 36.8452 36.5188 38.4302 36.3715C40.0369 36.2222 41.67 36.3254 43.0884 36.5082C44.4024 36.6776 45.5896 36.9259 46.4869 37.1406C49.5142 32.8674 53.475 29.3259 58.0787 26.7939C63.2653 23.9415 69.0956 22.4629 75.0147 22.4994ZM34.8536 62.4701C34.127 62.4477 33.4173 62.6928 32.8614 63.1611L32.8589 63.1635C32.3017 63.6316 31.7054 64.4571 31.1329 65.6293C30.5743 66.7729 30.1152 68.088 29.7486 69.3696C29.6308 69.7813 29.5247 70.1843 29.4288 70.5707C29.8154 70.4748 30.2204 70.3712 30.6324 70.2533C31.9136 69.8868 33.2269 69.425 34.3702 68.8666C35.5421 68.2942 36.3678 67.7001 36.836 67.143L36.8409 67.1357C37.8332 65.9613 37.7465 64.228 36.775 63.2612C36.252 62.773 35.5693 62.4923 34.8536 62.4701ZM58.3497 56.374C56.4538 57.4207 54.5013 58.3613 52.5001 59.1913V66.7621C52.74 66.6838 52.9868 66.5991 53.2374 66.5082C55.3949 65.7256 57.1947 64.698 57.9224 63.6103C58.2796 63.0728 58.5443 62.2434 58.65 61.1078C58.7537 59.9911 58.6875 58.751 58.5328 57.5507C58.4803 57.1436 58.4159 56.7491 58.3497 56.374ZM72.3951 27.5995C68.2278 27.9382 64.1689 29.152 60.4883 31.1762C56.0488 33.6179 52.306 37.154 49.6192 41.4496L49.6045 41.4741C47.9914 43.9937 46.5977 46.646 45.4371 49.4013L50.6031 54.5673C53.3917 53.4095 56.0781 52.0178 58.6329 50.4047C69.1956 43.3102 71.8838 34.0349 72.3951 27.5995ZM38.8941 41.3495C37.756 41.4553 36.9243 41.7213 36.3868 42.0795C35.3002 42.8085 34.2731 44.6066 33.4913 46.7621C33.4004 47.0127 33.3157 47.2595 33.2374 47.4994H40.8155C41.6563 45.4993 42.6087 43.5488 43.6695 41.6572C43.2814 41.588 42.8716 41.5212 42.4488 41.4667C41.249 41.3121 40.0104 41.2459 38.8941 41.3495Z" fill="url(#paint1_linear_17_217)"/>
<defs>
<linearGradient id="paint0_linear_17_217" x1="-31.8792" y1="55.1897" x2="100.056" y2="53.2097" gradientUnits="userSpaceOnUse">
<stop stop-color="#4F39F6"/>
<stop offset="1" stop-color="#9514FA"/>
</linearGradient>
<linearGradient id="paint1_linear_17_217" x1="6.61508" y1="52.4633" x2="77.5303" y2="51.4097" gradientUnits="userSpaceOnUse">
<stop stop-color="#4F39F6"/>
<stop offset="1" stop-color="#9514FA"/>
</linearGradient>
</defs>
</svg>
