<svg width="100" height="99" viewBox="0 0 100 99" fill="none" xmlns="http://www.w3.org/2000/svg">
<ellipse opacity="0.1" cx="50" cy="49.5" rx="50" ry="49.5" fill="url(#paint0_linear_17_208)"/>
<path d="M70 41.7466L52.5 51.4707V70.7481L69.2285 61.4585C69.6284 61.2364 69.8323 61.1201 69.9756 61.0288C69.9795 61.0263 69.9817 61.0214 69.9854 61.0191C69.9856 61.0153 69.9875 61.0109 69.9878 61.0069C69.998 60.8375 70 60.6037 70 60.1475V41.7466ZM49.9878 27.877C49.8436 27.9465 49.651 28.0548 49.2725 28.2652L32.6465 37.4985L50 47.1372L67.3511 37.4985L50.7275 28.2652C50.349 28.0548 50.1564 27.9465 50.0122 27.877C50.0078 27.8748 50.0041 27.8716 50 27.8696C49.9959 27.8716 49.9922 27.8748 49.9878 27.877ZM30.0122 61.0069C30.0124 61.0109 30.012 61.0153 30.0122 61.0191C30.0164 61.0217 30.0198 61.0259 30.0244 61.0288C30.1677 61.1201 30.3716 61.2364 30.7715 61.4585L47.5 70.7481V51.4707L30 41.7466V60.1475C30 60.6037 30.002 60.8375 30.0122 61.0069ZM75 60.6968C74.9952 61.2824 74.9605 61.9571 74.7485 62.5986C74.5252 63.2743 74.159 63.8942 73.6768 64.4175C73.0669 65.0792 72.256 65.4963 71.6577 65.8286L53.1567 76.1069C52.5895 76.4221 51.8474 76.8643 51.0083 77.0371C50.3438 77.1738 49.6562 77.1738 48.9917 77.0371C48.1526 76.8643 47.4105 76.4221 46.8433 76.1069L28.3423 65.8286C27.744 65.4963 26.9331 65.0792 26.3232 64.4175C25.841 63.8942 25.4748 63.2743 25.2515 62.5986C25.0395 61.9571 25.0048 61.2824 25 60.6968V39.3027C25.0048 38.7176 25.0399 38.0444 25.2515 37.4033C25.4748 36.7275 25.8409 36.1055 26.3232 35.582C26.9331 34.9204 27.744 34.5033 28.3423 34.1709L46.8433 23.8926C47.4104 23.5775 48.1526 23.1352 48.9917 22.9624C49.49 22.8599 50.0012 22.8331 50.5054 22.8843L51.0083 22.9624L51.3184 23.0381C52.0303 23.243 52.6604 23.6168 53.1567 23.8926L71.6577 34.1709C72.256 34.5033 73.0669 34.9204 73.6768 35.582C74.0387 35.9748 74.3337 36.4233 74.5532 36.9077L74.7485 37.4033L74.8389 37.7256C74.9699 38.2661 74.996 38.8149 75 39.3027V60.6968Z" fill="url(#paint1_linear_17_208)"/>
<path d="M36.5649 30.0366C37.2354 28.8298 38.7565 28.3947 39.9634 29.0649L62.4634 41.5649C63.6702 42.2354 64.1052 43.7565 63.435 44.9634C62.7646 46.1702 61.2435 46.6052 60.0366 45.935L37.5366 33.435C36.3298 32.7646 35.8947 31.2435 36.5649 30.0366Z" fill="url(#paint2_linear_17_208)"/>
<defs>
<linearGradient id="paint0_linear_17_208" x1="-31.8792" y1="55.1897" x2="100.056" y2="53.2097" gradientUnits="userSpaceOnUse">
<stop stop-color="#4F39F6"/>
<stop offset="1" stop-color="#9514FA"/>
</linearGradient>
<linearGradient id="paint1_linear_17_208" x1="9.0604" y1="53.1189" x2="75.0303" y2="52.2161" gradientUnits="userSpaceOnUse">
<stop stop-color="#4F39F6"/>
<stop offset="1" stop-color="#9514FA"/>
</linearGradient>
<linearGradient id="paint2_linear_17_208" x1="27.4834" y1="38.5057" x2="63.7535" y2="37.6589" gradientUnits="userSpaceOnUse">
<stop stop-color="#4F39F6"/>
<stop offset="1" stop-color="#9514FA"/>
</linearGradient>
</defs>
</svg>
