<svg width="100" height="99" viewBox="0 0 100 99" fill="none" xmlns="http://www.w3.org/2000/svg">
<ellipse opacity="0.1" cx="50" cy="49.5" rx="50" ry="49.5" fill="url(#paint0_linear_2_431)"/>
<path d="M67.5 72.5C67.5 68.8292 67.4735 67.5474 67.1777 66.5723C66.4506 64.1755 64.5744 62.2994 62.1777 61.5723C61.2026 61.2765 59.9208 61.25 56.25 61.25H43.75C40.0792 61.25 38.7974 61.2765 37.8222 61.5723C35.4255 62.2994 33.5494 64.1755 32.8222 66.5723C32.5264 67.5474 32.5 68.8292 32.5 72.5C32.5 73.8807 31.3807 75 30 75C28.6193 75 27.5 73.8807 27.5 72.5C27.5 69.1935 27.472 66.9857 28.0371 65.1221C29.249 61.1271 32.377 57.999 36.3721 56.7871C38.2357 56.222 40.4435 56.25 43.75 56.25H56.25C59.5565 56.25 61.7643 56.222 63.6279 56.7871C67.6229 57.999 70.751 61.1271 71.9629 65.1221C72.528 66.9857 72.5 69.1935 72.5 72.5C72.5 73.8807 71.3807 75 70 75C68.6193 75 67.5 73.8807 67.5 72.5ZM58.75 38.75C58.75 33.9175 54.8325 30 50 30C45.1675 30 41.25 33.9175 41.25 38.75C41.25 43.5825 45.1675 47.5 50 47.5C54.8325 47.5 58.75 43.5825 58.75 38.75ZM63.75 38.75C63.75 46.3439 57.5939 52.5 50 52.5C42.4061 52.5 36.25 46.3439 36.25 38.75C36.25 31.1561 42.4061 25 50 25C57.5939 25 63.75 31.1561 63.75 38.75Z" fill="url(#paint1_linear_2_431)"/>
<defs>
<linearGradient id="paint0_linear_2_431" x1="-31.8792" y1="55.1897" x2="100.056" y2="53.2097" gradientUnits="userSpaceOnUse">
<stop stop-color="#4F39F6"/>
<stop offset="1" stop-color="#9514FA"/>
</linearGradient>
<linearGradient id="paint1_linear_2_431" x1="13.154" y1="52.8736" x2="72.528" y2="52.0796" gradientUnits="userSpaceOnUse">
<stop stop-color="#4F39F6"/>
<stop offset="1" stop-color="#9514FA"/>
</linearGradient>
</defs>
</svg>
